<?xml version="1.0" encoding="UTF-8" standalone="no"?><svg xmlns:x="adobe:ns:meta/" xmlns:dc="http://purl.org/dc/elements/1.1/" xmlns:cc="http://creativecommons.org/ns#" xmlns:rdf="http://www.w3.org/1999/02/22-rdf-syntax-ns#" xmlns:svg="http://www.w3.org/2000/svg" xmlns="http://www.w3.org/2000/svg" height="258.11682" width="517.66455" xml:space="preserve" viewBox="0 0 517.66457 258.11683" y="0px" x="0px" id="Ebene_1" version="1.1"><defs id="defs75"></defs><metadata id="metadata2"><?xpacket begin="" id="W5M0MpCehiHzreSzNTczkc9d"?><x:xmpmeta x:xmptk="Adobe XMP Core 5.6-c143 79.161356, 2017/09/07-01:11:22 "><metadata><rdf:RDF><rdf:Description rdf:about="" /><cc:Work rdf:about=""><dc:format>image/svg+xml</dc:format><dc:type rdf:resource="http://purl.org/dc/dcmitype/StillImage" /><dc:title></dc:title></cc:Work></rdf:RDF></metadata></x:xmpmeta><?xpacket end="w"?></metadata><style id="style4" type="text/css">.st0{fill:#FFFFFF;}.st1{fill:none;stroke:#FFFFFF;stroke-width:11;stroke-miterlimit:10;}.st2{fill:#008B3A;}.st3{fill:#E2000F;}.st4{fill:#FFDC00;}</style><g transform="translate(-83.370521,-21.383173)" id="g6"></g><g transform="translate(-83.370521,-21.383173)" id="Ebene_3"></g><g transform="translate(-83.370521,-21.383173)" id="Ebene_6"></g><g transform="translate(-83.370521,-21.383173)" id="g70"><g id="g920"><path style="fill:#ffffff" d="m 339.73047,25.712891 c -65.45304,0.243216 -129.72497,31.677791 -170.41944,82.882969 -21.80368,27.01521 -37.06275,59.2368 -44.21728,93.20492 144.77083,0 289.54167,0 434.3125,0 C 545.70948,134.85342 499.00072,75.87098 437.11719,46.962891 406.8284,32.569324 373.2542,25.306463 339.73047,25.712891 Z" id="path10" /><path style="fill:#008b3a" d="M 338.86914,21.419922 C 265.0033,21.863208 192.20977,55.802804 144.49805,112.21094 104.85606,158.21023 82.684267,218.76705 83.386719,279.5 c 172.542321,0 345.084631,0 517.626951,0 C 601.94708,209.79113 572.25619,140.59545 521.51851,92.866701 472.96081,46.319736 406.10866,20.266337 338.86914,21.419922 Z m 3.33008,11.880859 c 65.18204,-0.533458 129.72935,31.705754 168.28125,84.685549 10.89148,14.77253 19.78853,30.94954 26.36133,48.04883 -1.48049,2.09215 -2.35929,1.75174 -3.1211,-0.60352 -2.63111,-4.02684 -5.3989,-8.63817 -10.49414,-9.6543 1.87406,3.76869 1.69543,7.48692 0.50977,11.91407 -1.51808,-3.36186 -0.32631,-10.05219 -4.67774,-10.94141 -1.90988,0.22317 -2.80929,4.19436 -4.32812,2.29492 -2.44319,6.52448 -2.06801,-1.46862 -2.70703,-4.56054 -0.13965,-4.03191 -1.64161,-7.72578 -4.69336,-10.5254 -1.88101,9.92919 -3.68757,21.58844 -5.51758,30.43164 -1.39399,-3.85071 -4.74252,-0.0346 -3.80273,-3.8125 1.41166,-6.20579 3.90561,-12.15846 4.92968,-18.46484 -4.06257,-3.90942 -7.2211,2.90376 -10.3649,5.33506 -2.2092,3.75151 -1.50631,-1.24089 -1.99057,-2.99912 -0.19861,-4.62782 -0.9497,-9.2447 -3.3164,-13.32227 -4.8884,7.73624 -4.42069,17.7279 -7,25.96094 -1.79668,-5.93777 -5.56664,2.48938 -5.26758,-4.3418 -1.83102,-7.14394 -1.78657,-14.94318 -4.69141,-21.71875 -5.038,-2.78824 -4.10984,5.6667 -4.66797,8.6097 -0.97675,2.85378 -0.17751,16.99846 -3.05078,8.08562 -1.58442,2.23175 -5.40769,9.64661 -3.32031,3.1875 1.66468,-5.29089 2.89263,-10.70918 2.01367,-16.33399 -1.89564,1.28059 -5.78594,10.18337 -6.35156,6.30078 -0.90345,-5.25586 -1.98668,-11.69056 -4.21048,-2.80493 -1.94412,4.27551 -4.19905,10.6904 -5.91061,13.50025 -0.34325,-3.41463 -0.89903,-12.05465 -3.58172,-5.16613 -2.19565,3.2478 -4.66805,7.95181 -7.17024,10.13097 -0.93514,-2.36316 -0.75395,-7.80405 -3.00819,-7.71245 -2.64251,1.97097 -5.98575,5.33791 -6.86485,0.17339 -3.77766,-6.37727 -4.02061,-13.8271 -4.62305,-20.99024 -6.67753,3.6161 -5.64108,12.2912 -7.70312,18.55469 -1.58882,8.77218 -2.92154,-2.75119 -3.63724,-6.5224 -0.29714,-11.13518 -3.72918,0.0144 -6.07175,3.12201 -0.67675,-9.64252 -6.99223,7.36623 -3.30983,-5.95917 2.60011,-10.34397 -2.7626,-3.25929 -5.82594,1.7099 -1.57377,1.44301 -8.04326,14.03366 -5.96774,7.14185 0.93678,-3.85263 2.71775,-8.61483 -2.6543,-4.4961 -2.60236,2.7538 -5.27468,7.77559 -7.17383,9.40625 0.59513,-3.7396 -0.24891,-7.46313 -1.33398,-11.02929 -4.51342,5.27401 -7.47386,11.51616 -10.24415,17.76172 -0.0189,-2.37118 -2.4785,-5.97323 -4.73242,-3.23243 1.06705,-2.41469 0.12258,-7.89239 -3.44531,-5.55078 -3.56677,3.12119 -6.65554,8.09029 -9.91992,10.55664 -3.60124,-3.94365 -1.5834,-11.01291 -5.8457,-14.23047 -4.68672,-0.25953 -3.57506,6.53613 -4.28112,9.56907 -0.33786,1.87418 -1.47486,-3.7724 -3.70521,-2.7761 -3.65645,-0.0471 -1.03826,9.30676 -4.03906,4.92774 -2.84483,-2.56083 -4.39801,-8.83097 -8.8711,-8.47461 -2.32249,0.96982 -0.8209,4.89728 -1.17383,5.78125 -2.34254,-2.37834 -4.47362,1.14165 -4.55664,3.38476 -2.8126,-5.30409 -4.94786,-11.11178 -8.99023,-15.71875 -0.72534,3.13752 -1.86495,6.30138 -1.47656,9.57422 -3.64001,-4.06799 -5.41971,-10.4832 -11.35157,-11.87109 0.82439,3.79198 1.67468,7.57545 2.54297,11.35742 -4.36528,-6.52731 -8.73098,-13.05435 -13.0957,-19.58203 0,6.222 0,12.44401 0,18.66601 -3.27272,-3.66775 -8.45816,-10.83459 -7.1875,-3.5625 -2.02816,-6.7722 -2.36924,-14.18604 -7.01953,-19.9082 -1.5569,9.43731 -2.31966,19.69029 -9.04688,27.17383 -2.05644,-3.89735 -3.84848,-8.20832 -7.89648,-10.50781 -0.45827,-3.96493 1.29748,-10.37723 -4.21094,-10.37305 -2.27744,5.84685 -4.12799,11.84542 -6.09375,17.80078 -1.99213,-5.97759 -3.11437,-12.4793 -7.68555,-17.1875 -2.77007,7.92108 -1.22198,17.67274 -2.66601,24.87305 -3.46341,-0.67028 -1.31461,-6.07266 -2.69531,-8.85938 0.15512,-3.36164 -1.65375,-6.25424 -3.78516,-8.70703 -1.51309,6.4897 -2.72799,6.97752 -3.72461,0.44922 -1.68188,-6.16117 -3.8505,-12.17046 -5.9668,-18.19141 -1.74518,8.87066 -3.33199,18.15724 -4.08398,26.97266 -3.44022,-7.88267 -4.07262,9.73542 -7.25107,-0.55452 -3.5231,-6.10817 -7.1641,-12.14934 -11.00674,-18.06267 -5.39196,2.95595 -0.68908,9.9181 -1.1582,14.89349 0.43819,2.47103 -2.94605,1.52876 -2.78712,6.57917 -0.19937,4.26421 -1.18868,-2.21074 -1.69531,-3.40625 -4.67896,1.16001 -4.68136,0.854 -6.02918,-3.88724 -1.6898,-4.89168 -3.117,-10.04605 -6.91222,-13.8237 -1.24845,4.26761 -2.06656,8.63405 -2.78711,13.01563 -3.00028,-3.82754 -4.91013,-9.23369 -8.91602,-11.9961 -4.47616,0.23008 -0.95393,6.23516 -0.81207,9.35546 0.89609,4.40373 2.21661,10.5632 2.19293,14.12697 -2.93294,-3.20491 -4.79352,-7.15238 -6.49805,-11.09961 -1.56679,3.38317 -3.0771,6.79242 -4.36523,10.29297 -0.83322,-2.47345 1.35926,-7.66885 -2.9375,-7.18946 28.04982,-64.531059 90.6444,-112.242335 159.97265,-122.490232 10.77488,-1.671622 21.64118,-2.50464 32.55274,-2.503907 z" id="path14" /><g id="g38"><path class="st0" d="m 165.1,257.9 c -3.2,1.2 -9.4,2.6 -15.3,2.6 -8.5,0 -14.6,-2.2 -18.9,-6.4 -4.7,-4.5 -7.2,-11.5 -7.2,-19.6 0.2,-17.9 12.2,-27 27.3,-27 5.9,0 10.4,1.2 12.6,2.2 l -2.2,9.2 c -2.5,-1.1 -5.5,-1.9 -10.2,-1.9 -8.9,0 -15.8,5.3 -15.8,17.3 0,11.2 6.2,17 14.3,17 2.2,0 3.8,-0.2 4.6,-0.6 v -11.4 h -7 v -8.9 H 165 v 27.5 z" id="path18" style="fill:#ffffff" /><path class="st0" d="m 171.8,208.8 c 3.6,-0.6 8.7,-1.1 14.2,-1.1 7,0 12.3,1.1 15.9,4 3.2,2.6 4.6,6.2 4.6,10.9 0,6.2 -4.1,10.9 -8.9,12.8 v 0.2 c 3.6,1.5 5.5,4.9 6.8,9.9 1.5,5.9 2.9,12.5 3.9,14.5 h -11.5 c -0.8,-1.5 -2,-6 -3.3,-12.2 -1.2,-6.5 -3.3,-8.3 -7.6,-8.3 H 183 V 260 h -11.2 z m 11.1,22.5 h 3.8 c 5.4,0 8.5,-3.2 8.5,-7.7 0,-4.7 -2.8,-7.3 -7.9,-7.4 -2.2,0 -3.6,0.2 -4.4,0.4 z" id="path20" style="fill:#ffffff" /><path class="st0" d="m 240.5,237.7 h -16.9 v 12.9 h 18.9 v 9.3 H 212.3 V 208 h 29.1 v 9.3 h -17.9 v 11.2 h 16.9 v 9.2 z" id="path22" style="fill:#ffffff" /><path class="st0" d="m 276.4,237.7 h -16.9 v 12.9 h 18.9 v 9.3 H 248.2 V 208 h 29.1 v 9.3 h -17.9 v 11.2 h 16.9 v 9.2 z" id="path24" style="fill:#ffffff" /><path class="st0" d="m 284.2,260 v -51.9 h 12.3 l 9.9,19.4 c 2.7,5 5.5,11.5 7.6,17 h 0.2 c -0.6,-6.5 -1,-14 -1,-22.4 v -14 h 10.2 V 260 h -11.3 l -10.2,-19.9 c -2.8,-5.2 -5.9,-11.9 -7.9,-17.5 h -0.2 c 0.3,6.4 0.5,13.9 0.5,23 V 260 Z" id="path26" style="fill:#ffffff" /><path class="st0" d="m 337.8,260 -11.2,-51.9 h 11.9 l 3.5,21.2 c 1,6.1 1.8,12.6 2.6,18.2 h 0.2 c 0.8,-5.9 2,-11.9 3.2,-18.3 l 4.2,-21 h 11.2 l 3.9,21.5 c 1.1,6 1.9,11.6 2.6,17.7 h 0.2 c 0.7,-6.2 1.7,-12 2.7,-18.2 l 3.7,-21 h 11.3 L 376,260 h -12 l -4,-20.7 c -1,-5.1 -1.8,-10.3 -2.5,-16.3 h -0.2 c -0.9,6 -1.8,11.2 -2.9,16.3 l -4.5,20.7 z" id="path28" style="fill:#ffffff" /><path class="st0" d="m 432.8,233.4 c 0,17.8 -9.3,27.3 -22.9,27.3 -14.2,0 -22,-11.9 -22,-26.5 0,-15.2 8.7,-26.9 22.8,-26.9 14.9,0 22.1,12.5 22.1,26.1 z m -33.1,0.7 c 0,10.6 4,17.5 10.7,17.5 6.9,0 10.5,-7.5 10.5,-17.8 0,-9.2 -3.5,-17.3 -10.5,-17.3 -6.7,0 -10.7,7.2 -10.7,17.6 z" id="path30" style="fill:#ffffff" /><path class="st0" d="m 437.8,208.8 c 3.6,-0.6 8.7,-1.1 14.2,-1.1 7,0 12.3,1.1 15.9,4 3.2,2.6 4.6,6.2 4.6,10.9 0,6.2 -4.1,10.9 -8.9,12.8 v 0.2 c 3.6,1.5 5.5,4.9 6.8,9.9 1.5,5.9 2.9,12.5 3.9,14.5 h -11.5 c -0.8,-1.5 -2,-6 -3.3,-12.2 -1.2,-6.5 -3.3,-8.3 -7.6,-8.3 H 449 V 260 h -11.2 z m 11.2,22.5 h 3.8 c 5.4,0 8.5,-3.2 8.5,-7.7 0,-4.7 -2.8,-7.3 -7.9,-7.4 -2.2,0 -3.6,0.2 -4.4,0.4 z" id="path32" style="fill:#ffffff" /><path class="st0" d="m 478.4,208.1 h 11.2 v 42.4 H 508 v 9.5 h -29.6 z" id="path34" style="fill:#ffffff" /><path class="st0" d="m 511.5,208.8 c 3.8,-0.7 8.9,-1.1 14.2,-1.1 8.9,0 14.7,1.7 19.2,5.3 5.1,4 8.2,10.5 8.2,19.9 0,10.2 -3.3,17.2 -8.2,21.3 -4.9,4.2 -12.2,6.2 -21.5,6.2 -5.2,0 -9.2,-0.4 -11.9,-0.7 z m 11.2,42.7 c 0.8,0.2 2.2,0.2 3.4,0.2 8.9,0.1 15,-5.5 15,-18.5 0,-10.8 -5.2,-16.6 -14.1,-16.6 -2,0 -3.4,0.2 -4.3,0.4 z" id="path36" style="fill:#ffffff" /></g><g id="g42"><path class="st0" d="m 567.9,205.9 c 0,4.9 -3.9,8.8 -9,8.8 -5,0 -9.1,-3.9 -9.1,-8.8 0,-4.8 4.1,-8.8 9.1,-8.8 5,0 9,4 9,8.8 z m -15.4,0.1 c 0,3.6 2.7,6.6 6.4,6.6 3.7,0.1 6.4,-3 6.4,-6.6 0,-3.6 -2.7,-6.6 -6.4,-6.6 -3.7,-0.1 -6.4,2.9 -6.4,6.6 z m 5.2,4.1 h -2.5 v -8 c 0.6,-0.1 1.9,-0.3 3.6,-0.3 1.9,0 2.7,0.3 3.3,0.7 0.5,0.3 0.9,0.9 0.9,1.7 0,0.8 -0.8,1.5 -1.8,1.8 v 0.1 c 0.9,0.3 1.4,0.9 1.6,2 0.3,1.2 0.4,1.7 0.6,1.9 h -2.8 c -0.3,-0.3 -0.4,-1 -0.6,-1.7 -0.2,-0.8 -0.6,-1.2 -1.4,-1.2 h -0.8 v 3 z m 0.1,-4.6 h 0.7 c 1,0 1.5,-0.4 1.5,-1 0,-0.7 -0.6,-1 -1.4,-1 -0.3,0 -0.6,0.1 -0.8,0.1 z" id="path40" style="fill:#ffffff" /></g><g id="g46"><path style="fill:#ffffff" id="path44" d="m 368,187.4 c 0,0 0,0 0,0 -9.6,0 -18.9,-3.8 -25.8,-10.5 -6.9,6.7 -16.1,10.5 -25.8,10.5 -7.7,0 -15.1,-2.4 -21.3,-6.9 C 280.6,170 276.2,150.4 283.9,134.6 268.4,126.4 260.4,108 266,90.9 c 4.9,-15.1 18.9,-25.2 34.9,-25.2 1.8,0 3.5,0.1 5.3,0.4 3,-17.3 18.1,-30.6 36,-30.6 17.9,0 33,13.2 36,30.6 1.7,-0.3 3.5,-0.4 5.3,-0.4 16,0 30,10.1 34.9,25.2 5.5,17.1 -2.4,35.5 -17.9,43.7 7.7,15.8 3.3,35.4 -11.2,45.9 -6.2,4.5 -13.6,6.9 -21.3,6.9 z" class="st0" /></g><path style="fill:#e2000f" d="m 341.36719,38.509766 c -16.7833,0.04331 -31.54774,14.57883 -32.68555,31.08789 -17.89518,-4.768438 -37.99378,7.968099 -40.95117,26.333985 -3.1953,15.225299 6.1178,31.534009 20.30078,37.294919 -10.03764,15.55637 -4.15363,38.60174 12.4082,47.08594 13.50694,7.7321 31.90308,3.95055 41.78516,-7.77734 11.68699,14.3787 35.46145,15.89496 48.64453,2.74609 11.49645,-10.45728 13.65785,-29.10204 5.51563,-42.11523 17.22118,-6.7101 26.04815,-28.78408 17.625,-45.371098 C 407.61178,73.649144 390.56371,65.809767 375.67188,69.568359 374.44312,52.184018 358.91206,37.796288 341.36719,38.509766 Z" id="path48" /><g id="g54"><path class="st4" d="m 345.4,160.9 c -24.9,0 -45.1,-20.2 -45.1,-45.1 0,-24.9 20.2,-45.1 45.1,-45.1 24.9,0 45.1,20.2 45.1,45.1 0,24.9 -20.2,45.1 -45.1,45.1 z" id="path52" style="fill:#ffdc00" /></g><g id="g68"><g id="g58"><path class="st3" d="m 393.8,113.8 c 2.3,-2.8 2.9,-6.3 2.9,-9.3 0,-3.2 -1.2,-13.6 -16.7,-13.6 h -14.7 l -4,4 -1.8,-2.8 c -3.1,-1.3 -6.9,-1.9 -11.5,-1.9 -11.1,0 -18.6,6.4 -18.6,16 0,6.8 2.7,11.4 8.5,14.4 l -5.2,2.8 -9.3,-29.4 -4.2,-3.1 H 305 l -1.5,3 -12.1,36.4 1.5,2.1 -0.5,2.9 2.4,3.4 h 10 l 4.3,-3.2 1.5,-5.1 h 4.6 l 1.2,4.9 4.3,3.4 h 10.8 v 0 0 l 0.9,-1.3 1.1,0.4 c 2.2,0.6 6.2,1.6 11.3,1.6 6.7,0 12,-2.1 15.3,-5.7 l 5,5 H 380 c 5,0 9.2,-1.3 12.1,-3.8 0.8,-0.7 -0.4,-3.1 -0.4,-3.1 0,0 3.7,-0.9 4.1,-1.9 0.8,-1.9 1.3,-4.1 1.3,-6.6 0.3,-3.8 -1,-7.1 -3.3,-9.5 z M 361,111.9 c -2,-2.1 -4.3,-3.2 -5.4,-3.7 l -0.3,-0.1 5.7,-3.2 z" id="path56" style="fill:#e2000f" /></g><g id="g66"><path class="st0" d="m 318.9,126 h -11.4 l -2.5,8.2 h -10 l 12.9,-38.8 h 11.5 l 12.3,38.8 h -10.8 z m -5.4,-22.7 h -0.1 l -4.2,15.2 h 7.7 z" id="path60" style="fill:#ffffff" /><path class="st0" d="m 335.3,124.9 c 1.3,0.7 5.1,2.3 8.8,2.3 3.9,0 5.3,-1.7 5.3,-4.2 0,-2.6 -1.7,-3.3 -4.7,-4.4 l -2.3,-0.9 c -6.4,-2.5 -8.3,-5.9 -8.3,-11.5 0,-7.3 5.9,-11.5 14.1,-11.5 2.9,0 6.6,0.3 9.8,1.6 l -0.4,7.6 c -1.8,-0.9 -5,-1.9 -8,-1.9 -3.1,0 -5,1.3 -5,3.7 0,2 1,2.9 4.4,4.4 l 4.7,2.1 c 3.5,1.6 6.6,4.1 6.6,9.8 0,8.5 -6.1,12.8 -15.2,12.8 -4.7,0 -8.4,-1 -10.3,-1.5 z" id="path62" style="fill:#ffffff" /><path class="st0" d="m 365.4,95.4 h 14.7 c 8.2,0 12.2,3.4 12.2,9.2 0,6.2 -3.4,8.5 -7.3,9.5 v 0.1 c 4.8,0.8 7.9,3.9 7.9,9.2 0,7.7 -5.2,10.9 -12.6,10.9 h -14.9 z m 12.1,15.5 c 2.6,0 4.8,-1 4.8,-4.3 0,-2.9 -1.8,-4.2 -4.2,-4.2 h -2.7 v 8.5 z m 0.7,16.1 c 3,0 4.7,-1.5 4.7,-4.4 0,-2.9 -1.6,-4.6 -4.3,-4.6 h -3.2 v 9.1 h 2.8 z" id="path64" style="fill:#ffffff" /></g></g></g></g></svg>