<svg width="360" height="50" viewBox="0 0 360 50" fill="none" xmlns="http://www.w3.org/2000/svg">
<g clip-path="url(#clip0_10_404)">
<path d="M6.58192 0L2.57062 21.0876H2.52825V0H0V50H2.52825V27.5141H2.57062L6.72316 50H9.98588L4.77401 23.0791L9.70339 0H6.58192Z" fill="#A09958"/>
<path d="M13.2344 0H10.6921V49.9859H13.2344V0Z" fill="#6A3735"/>
<path d="M21.6526 0L17.6271 21.0876H17.5989V0H15.0565V50H17.5989V27.5141H17.6271L21.7797 50H25.0424L19.8447 23.0791L24.774 0H21.6526Z" fill="#A09958"/>
<path d="M295.297 31.2994H298.121V27.1893L299.195 25.8616L302.288 31.2994H305.621L301.229 24.0254L305.466 18.6582H301.935L299.11 22.8955C298.828 23.3475 298.531 23.7994 298.249 24.3079V18.7429H295.424L295.297 31.2994ZM314.28 23.6582H309.633V21.0311H314.562V18.7006H306.78V31.2994H314.816V28.9689H309.633V25.9746H314.28V23.6582ZM316.271 30.7204C317.39 31.2385 318.611 31.4992 319.845 31.4831C323.305 31.4831 324.929 29.6893 324.929 27.5848C324.929 25.8051 323.884 24.6469 321.667 23.8136C320.028 23.2062 319.322 22.8531 319.322 22.048C319.322 21.243 319.915 20.8334 321.158 20.8334C322.072 20.8308 322.975 21.0336 323.799 21.4266L324.435 19.1243C323.419 18.6846 322.321 18.4679 321.215 18.4887C318.235 18.4887 316.441 20.1413 316.441 22.2882C316.441 24.1243 317.853 25.2825 319.901 26.0028C321.412 26.5537 322.02 27.0057 322.02 27.7825C322.02 28.5593 321.328 29.1949 320.014 29.1949C318.913 29.1736 317.832 28.9032 316.85 28.404L316.271 30.7204ZM326.864 31.2994H329.689V27.1893L330.763 25.8616L333.856 31.2994H337.246L332.783 24.0254L337.02 18.6582H333.517L330.692 22.8955C330.424 23.3475 330.113 23.7994 329.831 24.3079V18.7429H327.006L326.864 31.2994ZM338.319 18.7006V25.7627C338.319 29.774 340.198 31.5254 343.376 31.5254C346.554 31.5254 348.63 29.6893 348.63 25.791V18.7288H345.805V25.9746C345.805 28.2062 344.972 29.2514 343.475 29.2514C341.977 29.2514 341.201 28.1497 341.201 25.9746V18.7288L338.319 18.7006ZM350.607 30.7204C351.726 31.2399 352.947 31.5006 354.181 31.4831C357.641 31.4831 359.266 29.6893 359.266 27.5848C359.266 25.8051 358.22 24.6469 355.989 23.8136C354.364 23.2062 353.658 22.8531 353.658 22.048C353.658 21.243 354.251 20.8334 355.494 20.8334C356.404 20.8305 357.302 21.0333 358.122 21.4266L358.757 19.1243C357.746 18.6845 356.653 18.4677 355.551 18.4887C352.571 18.4887 350.777 20.1413 350.777 22.2882C350.777 24.1243 352.189 25.2825 354.237 26.0028C355.749 26.5537 356.356 27.0057 356.356 27.7825C356.356 28.5593 355.65 29.1949 354.35 29.1949C353.249 29.1756 352.167 28.9051 351.186 28.404L350.607 30.7204Z" fill="#A09958"/>
<path d="M136.031 31.2994H138.856V18.7006H136.031V31.2994ZM143.983 31.2994V27.5C143.983 25.452 143.983 23.6723 143.87 22.0057C144.517 23.5279 145.248 25.0133 146.059 26.4548L148.743 31.3136H151.737V18.7147H149.124V22.4011C149.107 24.1509 149.187 25.9003 149.364 27.6412C148.769 26.1631 148.08 24.7242 147.302 23.3333L144.689 18.7147H141.356V31.3136L143.983 31.2994ZM160.565 31.2994L164.802 18.7006H161.766L160.169 24.0254C159.746 25.4379 159.35 26.9633 159.04 28.4746C158.729 26.9068 158.347 25.4661 157.91 23.9689L156.384 18.6441H153.249L157.288 31.2429L160.565 31.2994ZM173.658 23.6582H169.011V21.0311H173.941V18.7006H166.158V31.2994H174.195V28.9689H169.011V25.9746H173.658V23.6582ZM175.664 30.7203C176.777 31.2402 177.994 31.5009 179.223 31.483C182.684 31.483 184.308 29.6893 184.308 27.5848C184.308 25.8051 183.263 24.6469 181.045 23.8136C179.421 23.2062 178.701 22.8531 178.701 22.048C178.701 21.2429 179.308 20.8333 180.537 20.8333C181.451 20.8289 182.354 21.0317 183.178 21.4266L183.814 19.1243C182.798 18.6829 181.7 18.4661 180.593 18.4887C177.613 18.4887 175.833 20.1413 175.833 22.2881C175.833 24.1243 177.246 25.2825 179.28 26.0028C180.805 26.5537 181.398 27.0057 181.398 27.7825C181.398 28.5593 180.706 29.1949 179.393 29.1949C178.296 29.1755 177.219 28.9049 176.243 28.404L175.664 30.7203ZM188.672 31.2994H191.497V21.0876H194.943V18.7006H185.254V21.0876H188.644L188.672 31.2994ZM203.983 23.6582H199.35V21.0311H204.265V18.7006H196.483V31.2994H204.477V28.9689H199.294V25.9746H203.926L203.983 23.6582ZM213.969 23.6582H209.336V21.0311H214.251V18.7006H206.469V31.2994H214.52V28.9689H209.336V25.9746H213.969V23.6582ZM216.455 31.2994H219.28V26.3418H220.141C221.299 26.3418 221.85 26.7938 222.189 28.3616C222.379 29.3685 222.672 30.3531 223.065 31.2994H225.974C225.734 30.8192 225.339 29.1667 224.943 27.7401C224.864 27.2512 224.67 26.788 224.378 26.388C224.086 25.9879 223.704 25.6624 223.263 25.4379C223.908 25.2099 224.467 24.7899 224.866 24.2344C225.265 23.6788 225.484 23.0144 225.494 22.3305C225.52 21.8305 225.428 21.3315 225.227 20.873C225.026 20.4145 224.721 20.0092 224.336 19.6893C223.123 18.9149 221.687 18.567 220.254 18.7006C218.983 18.6904 217.712 18.7802 216.455 18.9689V31.2994ZM219.28 20.8051C219.71 20.7448 220.144 20.7165 220.579 20.7203C221.879 20.7203 222.669 21.3136 222.669 22.4717C222.669 23.6299 221.822 24.2938 220.41 24.2938H219.28V20.8051ZM227.556 31.2994H230.381V18.7006H227.556V31.2994ZM235.494 31.2994V27.5C235.494 25.452 235.494 23.6723 235.381 22.0057C236.034 23.5253 236.765 25.0103 237.571 26.4548L240.268 31.3136H243.249V18.7147H240.635V22.4011C240.619 24.1509 240.699 25.9003 240.876 27.6412C240.291 26.1607 239.607 24.7215 238.828 23.3333L236.201 18.7147H232.881V31.3136L235.494 31.2994ZM256.299 24.0254H251.61V26.2429H253.559V28.8842C253.105 29.04 252.626 29.1071 252.147 29.0819C251.057 29.0557 250.022 28.5975 249.269 27.8082C248.517 27.0188 248.109 25.963 248.135 24.8729C248.162 23.7828 248.62 22.7478 249.409 21.9955C250.199 21.2432 251.255 20.8354 252.345 20.8616C253.353 20.8248 254.356 21.013 255.282 21.4124L255.876 19.1243C254.768 18.678 253.58 18.4664 252.387 18.5028C248.249 18.5028 245.212 20.9039 245.184 25.0989C245.148 25.9432 245.288 26.7858 245.594 27.5735C245.9 28.3611 246.367 29.0767 246.963 29.6751C248.38 30.897 250.224 31.5066 252.09 31.3701C253.531 31.3521 254.959 31.1139 256.328 30.6638L256.299 24.0254ZM258.517 18.6441V25.7062C258.517 29.7175 260.381 31.483 263.559 31.483C266.737 31.483 268.813 29.6328 268.813 25.7345V18.6723H265.989V25.9322C265.989 28.1497 265.169 29.1949 263.672 29.1949C262.175 29.1949 261.384 28.0932 261.384 25.9322V18.6723L258.517 18.6441ZM273.686 31.2994H276.511V21.0876H279.943V18.7006H270.268V21.0876H273.686V31.2994ZM288.997 23.6582H284.364V21.0311H289.28V18.7006H281.511V31.2994H289.548V28.9689H284.364V25.9746H288.997V23.6582Z" fill="#6A3735"/>
<path d="M30.6497 31.2994H33.4746V27.1893L34.5622 25.8616L37.6554 31.2994H40.9746L36.5678 24.0254L40.8051 18.6582H37.2458L34.4209 22.8955C34.1384 23.3475 33.8418 23.7994 33.5593 24.3079V18.7429H30.7345L30.6497 31.2994ZM49.6186 23.6582H44.9859V21.0311H49.9011V18.7006H42.1186V31.2994H50.1695V28.9689H44.9859V25.9746H49.6186V23.6582ZM51.6243 30.7203C52.743 31.2399 53.9644 31.5006 55.1978 31.483C58.6582 31.483 60.2825 29.6893 60.2825 27.5848C60.2825 25.8051 59.2373 24.6469 57.0057 23.8136C55.3814 23.2062 54.6752 22.8531 54.6752 22.048C54.6752 21.2429 55.2684 20.8333 56.5113 20.8333C57.4205 20.8305 58.3186 21.0333 59.1384 21.4266L59.774 19.1243C58.7589 18.6829 57.6604 18.4661 56.5537 18.4887C53.5876 18.4887 51.7938 20.1413 51.7938 22.2881C51.7938 24.1243 53.2062 25.2825 55.2542 26.0028C56.7655 26.5537 57.3588 27.0057 57.3588 27.7825C57.3588 28.5593 56.6667 29.1949 55.3672 29.1949C54.2662 29.1756 53.184 28.9051 52.2034 28.404L51.6243 30.7203ZM62.2034 31.2994H65.0283V27.1893L66.1158 25.8616L69.1949 31.2994H72.5283L68.1356 24.0254L72.3022 18.6582H68.8842L66.0593 22.8955C65.7769 23.3475 65.4803 23.7994 65.1978 24.3079V18.7429H62.3729L62.2034 31.2994ZM73.6865 31.2994H76.5113V27.1893L77.5989 25.8616L80.6779 31.2994H84.0113L79.6186 24.0254L83.7853 18.6582H80.2966L77.4718 22.8955C77.1893 23.3475 76.8926 23.7994 76.6101 24.3079V18.7429H73.7853L73.6865 31.2994ZM90.0706 18.4887C86.3418 18.4887 83.9266 21.3136 83.9266 25.0847C83.9266 28.8559 86.1158 31.4972 89.8587 31.4972C93.6017 31.4972 96.0452 28.9972 96.0452 24.8729C96.0452 21.3842 93.9407 18.4887 90.0706 18.4887ZM89.9859 20.7486C91.9492 20.7486 93.0367 22.6977 93.0367 24.9859C93.0367 27.274 91.9351 29.2232 90.0142 29.2232C88.0933 29.2232 86.9351 27.4859 86.9351 24.9859C86.9351 22.4859 88.065 20.7486 89.9859 20.7486ZM100.537 31.2994V27.5C100.537 25.452 100.537 23.6723 100.424 22.0057C101.045 23.4181 101.836 25.0989 102.613 26.4548L105.311 31.3136H108.432V18.7147H105.819V22.387C105.802 24.1415 105.882 25.8956 106.059 27.6412C105.475 26.1607 104.79 24.7215 104.011 23.3333L101.384 18.7147H98.0649V31.3136L100.537 31.2994ZM113.432 31.2994V27.5C113.432 25.452 113.432 23.6723 113.333 22.0057C113.979 23.5264 114.705 25.0116 115.509 26.4548L118.206 31.3136H121.201V18.7147H118.588V22.387C118.57 24.1415 118.651 25.8956 118.828 27.6412C118.232 26.1631 117.543 24.7242 116.766 23.3333L114.153 18.7147H110.819V31.3136L113.432 31.2994ZM130.268 28.065L131.243 31.2994H134.308L130.395 18.7006H126.667L122.811 31.2994H125.763L126.667 28.065H130.268ZM127.076 25.9322L127.825 23.2627C128.023 22.5283 128.206 21.5678 128.404 20.8333C128.602 21.5678 128.814 22.5141 129.04 23.2627L129.831 25.9322H127.076Z" fill="#A09958"/>
</g>
<defs>
<clipPath id="clip0_10_404">
<rect width="359.266" height="50" fill="white"/>
</clipPath>
</defs>
</svg>
